<?xml version="1.0" encoding="UTF-8" standalone="no"?>
<svg
   id="Layer_1"
   data-name="Layer 1"
   viewBox="0 0 24 24"
   version="1.1"
   sodipodi:docname="auto.svg"
   inkscape:version="1.2.2 (732a01da63, 2022-12-09)"
   xml:space="preserve"
   xmlns:inkscape="http://www.inkscape.org/namespaces/inkscape"
   xmlns:sodipodi="http://sodipodi.sourceforge.net/DTD/sodipodi-0.dtd"
   xmlns="http://www.w3.org/2000/svg"
   xmlns:svg="http://www.w3.org/2000/svg"><defs
     id="defs7" /><sodipodi:namedview
     id="namedview5"
     pagecolor="#ffffff"
     bordercolor="#000000"
     borderopacity="0.25"
     inkscape:showpageshadow="2"
     inkscape:pageopacity="0.0"
     inkscape:pagecheckerboard="0"
     inkscape:deskcolor="#d1d1d1"
     showgrid="false"
     inkscape:zoom="19.666667"
     inkscape:cx="20.237288"
     inkscape:cy="22.423728"
     inkscape:window-width="2560"
     inkscape:window-height="1494"
     inkscape:window-x="-11"
     inkscape:window-y="-11"
     inkscape:window-maximized="1"
     inkscape:current-layer="Layer_1" /><rect
     style="fill:#05172d;stroke-width:1.14553;fill-opacity:1"
     id="rect422"
     width="24"
     height="24"
     x="0"
     y="0"
     ry="4.2711864" /><path
     d="m 22,9.0623337 a 1.25,1.25 0 0 0 -1.25,-1.25 c 0,0 -0.48667,0 -0.52083,0.007 a 24.7575,24.7575 0 0 0 -2.135,-3.29916 3.2366667,3.2366667 0 0 0 -1.64834,-1.13084 c -1.4675,-0.71333 -7.42416,-0.71333 -8.89166,0 a 3.2366667,3.2366667 0 0 0 -1.64834,1.13084 24.7575,24.7575 0 0 0 -2.135,3.29916 c -0.0342,-0.007 -0.52083,-0.007 -0.52083,-0.007 a 1.25,1.25 0 0 0 -1.25,1.25 v 5.4166603 a 3.3333333,3.3333333 0 0 0 1.66667,2.88584 v 1.28083 a 2.5000001,2.5000001 0 0 0 5,0 v -0.83333 h 6.66666 v 0.83333 a 2.5,2.5 0 0 0 5,0 v -1.28083 A 3.3333333,3.3333333 0 0 0 22,14.478994 Z M 7.22833,5.5339938 a 1.5833333,1.5833333 0 0 1 0.80584,-0.54916 c 1.26583,-0.6258401 6.66666,-0.6258401 7.93166,0 a 1.5833333,1.5833333 0 0 1 0.80584,0.54916 23.848333,23.848333 0 0 1 3.1,5.4083402 54.52,54.52 0 0 0 -15.74334,0 23.848333,23.848333 0 0 1 3.1,-5.4083402 z M 7,18.645664 a 0.833335,0.833335 0 0 1 -1.66667,0 v -0.83333 H 7 Z m 11.66667,0 a 0.833335,0.833335 0 0 1 -1.66667,0 v -0.83333 h 1.66667 z m 0,-2.5 H 5.33333 a 1.6666667,1.6666667 0 0 1 -1.66666,-1.66667 v -1.78583 A 63.210832,63.210832 0 0 1 12,11.978994 a 63.210832,63.210832 0 0 1 8.33333,0.71417 v 1.78583 a 1.6666667,1.6666667 0 0 1 -1.66666,1.66667 z M 7,14.478994 a 0.833335,0.833335 0 0 1 -1.66667,0 0.833335,0.833335 0 0 1 1.66667,0 z m 11.66667,0 a 0.833335,0.833335 0 0 1 -1.66667,0 0.833335,0.833335 0 0 1 1.66667,0 z"
     id="path490"
     style="fill:#ffffff;stroke-width:0.833332" /></svg>
