<?xml version="1.0" encoding="UTF-8" standalone="no"?>
<!-- Created with Inkscape (http://www.inkscape.org/) -->

<svg
   width="53.088058mm"
   height="48.546623mm"
   viewBox="0 0 53.088058 48.546623"
   version="1.1"
   id="svg5"
   xml:space="preserve"
   inkscape:version="1.2.2 (732a01da63, 2022-12-09)"
   sodipodi:docname="Automotive.svg"
   xmlns:inkscape="http://www.inkscape.org/namespaces/inkscape"
   xmlns:sodipodi="http://sodipodi.sourceforge.net/DTD/sodipodi-0.dtd"
   xmlns="http://www.w3.org/2000/svg"
   xmlns:svg="http://www.w3.org/2000/svg"><sodipodi:namedview
     id="namedview7"
     pagecolor="#ffffff"
     bordercolor="#000000"
     borderopacity="0.25"
     inkscape:showpageshadow="2"
     inkscape:pageopacity="0.0"
     inkscape:pagecheckerboard="0"
     inkscape:deskcolor="#d1d1d1"
     inkscape:document-units="mm"
     showgrid="false"
     inkscape:zoom="0.5946522"
     inkscape:cx="-858.48501"
     inkscape:cy="-364.07836"
     inkscape:window-width="2560"
     inkscape:window-height="1494"
     inkscape:window-x="-11"
     inkscape:window-y="-11"
     inkscape:window-maximized="1"
     inkscape:current-layer="layer1" /><defs
     id="defs2" /><g
     inkscape:label="Layer 1"
     inkscape:groupmode="layer"
     id="layer1"
     transform="translate(-128.13272,-120.39701)"><path
       d="m 181.22078,136.87751 a 3.3180023,3.3180023 0 0 0 -3.31802,-3.31803 c 0,0 -1.29178,0 -1.3825,0.0166 a 65.716352,65.716352 0 0 0 -5.66712,-8.75728 8.5914141,8.5914141 0 0 0 -4.37536,-3.0017 c -3.89531,-1.89346 -19.70669,-1.89346 -23.60206,0 a 8.5914141,8.5914141 0 0 0 -4.37534,3.0017 65.716352,65.716352 0 0 0 -5.66714,8.75728 c -0.091,-0.0166 -1.3825,-0.0166 -1.3825,-0.0166 a 3.3180023,3.3180023 0 0 0 -3.31802,3.31803 v 14.37797 a 8.8480058,8.8480058 0 0 0 4.42405,7.66019 v 3.39985 a 6.6360047,6.6360047 0 0 0 13.272,0 v -2.21199 h 17.69601 v 2.21199 a 6.6360047,6.6360047 0 0 0 13.272,0 v -3.39985 a 8.8480058,8.8480058 0 0 0 4.424,-7.66019 z m -39.20995,-9.36565 a 4.2028026,4.2028026 0 0 1 2.13901,-1.4577 c 3.36003,-1.66123 17.696,-1.66123 21.05383,0 a 4.2028026,4.2028026 0 0 1 2.13902,1.4577 63.303058,63.303058 0 0 1 8.22864,14.35593 144.71799,144.71799 0 0 0 -41.78914,0 63.303058,63.303058 0 0 1 8.22864,-14.35593 z m -0.60606,34.80366 a 2.2120215,2.2120215 0 0 1 -4.42403,0 v -2.21199 h 4.42403 z m 30.96801,0 a 2.2120059,2.2120059 0 0 1 -4.424,0 v -2.21199 h 4.424 z m 0,-6.63604 h -35.39204 a 4.4240031,4.4240031 0 0 1 -4.42397,-4.424 v -4.74029 a 167.78695,167.78695 0 0 1 22.12,-1.89572 167.78695,167.78695 0 0 1 22.12001,1.89572 v 4.74029 a 4.4240031,4.4240031 0 0 1 -4.424,4.424 z m -30.96801,-4.424 a 2.2120215,2.2120215 0 0 1 -4.42403,0 2.2120215,2.2120215 0 0 1 4.42403,0 z m 30.96801,0 a 2.2120059,2.2120059 0 0 1 -4.424,0 2.2120059,2.2120059 0 0 1 4.424,0 z"
       id="path490"
       style="fill:#05172d;fill-opacity:1;stroke-width:2.21199" /></g></svg>
