<?xml version="1.0" encoding="UTF-8" standalone="no"?>
<svg
   id="Layer_1"
   data-name="Layer 1"
   viewBox="0 0 24 24"
   version="1.1"
   sodipodi:docname="constructions.svg"
   inkscape:version="1.2.2 (732a01da63, 2022-12-09)"
   xml:space="preserve"
   xmlns:inkscape="http://www.inkscape.org/namespaces/inkscape"
   xmlns:sodipodi="http://sodipodi.sourceforge.net/DTD/sodipodi-0.dtd"
   xmlns="http://www.w3.org/2000/svg"
   xmlns:svg="http://www.w3.org/2000/svg"><defs
     id="defs7" /><sodipodi:namedview
     id="namedview5"
     pagecolor="#ffffff"
     bordercolor="#000000"
     borderopacity="0.25"
     inkscape:showpageshadow="2"
     inkscape:pageopacity="0.0"
     inkscape:pagecheckerboard="0"
     inkscape:deskcolor="#d1d1d1"
     showgrid="false"
     inkscape:zoom="9.8333335"
     inkscape:cx="21.355932"
     inkscape:cy="11.288135"
     inkscape:window-width="2560"
     inkscape:window-height="1494"
     inkscape:window-x="-11"
     inkscape:window-y="-11"
     inkscape:window-maximized="1"
     inkscape:current-layer="Layer_1" /><rect
     style="fill:#05172d;stroke-width:1.14553;fill-opacity:1"
     id="rect422"
     width="24"
     height="24"
     x="0"
     y="0"
     ry="4.2711864" /><path
     d="m 21.630592,20.934301 c -0.430007,0.66751 -1.162518,1.06585 -1.959196,1.06585 h -5.342581 c -0.875013,0 -1.667525,-0.480841 -2.068364,-1.255019 -0.397506,-0.767512 -0.334172,-1.684192 0.165002,-2.390036 L 13.178798,17.28758 2.3953025,10.625812 C 2.00363,10.384142 1.8827948,9.870801 2.1244651,9.479129 2.3661354,9.085789 2.8794765,8.966621 3.2711491,9.208291 L 5.9720232,10.87665 6.7687019,8.656616 C 7.0095389,7.984939 7.5270467,7.447431 8.1895567,7.180761 8.8520667,6.91409 9.5970779,6.94409 10.236254,7.262431 l 0.391672,0.147503 c 0.956681,0.476673 1.685025,1.293352 2.050864,2.299201 l 0.920847,2.67754 c 0.148336,0.430007 -0.07583,0.899181 -0.50334,1.055016 -0.43834,0.159169 -0.921681,-0.07167 -1.07335,-0.512507 L 11.1121,10.279144 c -0.0325,-0.08833 -0.07833,-0.168336 -0.119168,-0.251671 l -1.1600172,3.234216 4.3092312,2.661706 1.535023,-2.175032 c 0.486674,-0.689177 1.273352,-1.05585 2.124199,-0.975015 0.842512,0.08 1.552523,0.585009 1.900862,1.35252 l 2.090864,4.60757 c 0.325005,0.715011 0.264171,1.538356 -0.161669,2.200866 z M 11.58294,6.166579 c 1.150851,0 2.083365,-0.932515 2.083365,-2.083365 0,-1.150851 -0.932514,-2.083365 -2.083365,-2.083365 -1.15085,0 -2.0833636,0.932514 -2.0833636,2.083365 0,1.15085 0.9325136,2.083365 2.0833636,2.083365 z M 9.4995764,17.000075 c -0.4608403,0 -0.8333459,0.372506 -0.8333459,0.833346 v 3.333384 c 0,0.46084 0.3725056,0.833346 0.8333459,0.833346 0.46084,0 0.8333456,-0.372506 0.8333456,-0.833346 v -3.333384 c 0,-0.46084 -0.3725056,-0.833346 -0.8333456,-0.833346 z M 5.5428501,14.43837 C 5.1061768,14.285034 4.632003,14.51087 4.4786673,14.944211 l -2.1108652,5.943423 c -0.154169,0.434173 0.072501,0.910847 0.505841,1.064183 0.092501,0.0325 0.1866695,0.04833 0.2791709,0.04833 0.3425052,0 0.6641767,-0.213337 0.7850118,-0.554175 l 2.1100319,-5.943423 c 0.154169,-0.434173 -0.072501,-0.910847 -0.505841,-1.064183 z"
     id="path477"
     style="fill:#ffffff;stroke-width:0.833346" /></svg>
