<?xml version="1.0" encoding="UTF-8" standalone="no"?>
<svg
   id="Layer_1"
   data-name="Layer 1"
   viewBox="0 0 20 20.000301"
   version="1.1"
   sodipodi:docname="constructions.svg"
   inkscape:version="1.2.2 (732a01da63, 2022-12-09)"
   xml:space="preserve"
   width="20"
   height="20.000301"
   xmlns:inkscape="http://www.inkscape.org/namespaces/inkscape"
   xmlns:sodipodi="http://sodipodi.sourceforge.net/DTD/sodipodi-0.dtd"
   xmlns="http://www.w3.org/2000/svg"
   xmlns:svg="http://www.w3.org/2000/svg"><defs
     id="defs7" /><sodipodi:namedview
     id="namedview5"
     pagecolor="#ffffff"
     bordercolor="#000000"
     borderopacity="0.25"
     inkscape:showpageshadow="2"
     inkscape:pageopacity="0.0"
     inkscape:pagecheckerboard="0"
     inkscape:deskcolor="#d1d1d1"
     showgrid="false"
     inkscape:zoom="9.8333335"
     inkscape:cx="7.1694914"
     inkscape:cy="9.5084744"
     inkscape:window-width="2560"
     inkscape:window-height="1494"
     inkscape:window-x="-11"
     inkscape:window-y="-11"
     inkscape:window-maximized="1"
     inkscape:current-layer="Layer_1" /><path
     d="m 19.630592,18.934452 c -0.430007,0.66751 -1.162518,1.06585 -1.959196,1.06585 h -5.342581 c -0.875013,0 -1.667525,-0.480841 -2.068364,-1.255019 -0.3975061,-0.767512 -0.3341721,-1.684192 0.165002,-2.390036 L 11.178798,15.287731 0.39530237,8.625963 C 0.00362987,8.384293 -0.11720533,7.870952 0.12446497,7.47928 0.36613527,7.08594 0.87947637,6.966772 1.271149,7.208442 L 3.9720231,8.876801 4.7687018,6.656767 C 5.0095388,5.98509 5.5270466,5.447582 6.1895566,5.180912 6.8520666,4.914241 7.5970778,4.944241 8.2362539,5.262582 l 0.391672,0.147503 c 0.956681,0.476673 1.6850251,1.293352 2.0508641,2.299201 l 0.920847,2.67754 c 0.148336,0.430007 -0.07583,0.899181 -0.50334,1.055016 -0.43834,0.159169 -0.921681,-0.07167 -1.07335,-0.512507 L 9.1120999,8.279295 c -0.0325,-0.08833 -0.07833,-0.168336 -0.119168,-0.251671 l -1.1600172,3.234216 4.3092313,2.661706 1.535023,-2.175032 c 0.486674,-0.689177 1.273352,-1.05585 2.124199,-0.975015 0.842512,0.08 1.552523,0.585009 1.900862,1.35252 l 2.090864,4.60757 c 0.325005,0.715011 0.264171,1.538356 -0.161669,2.200866 z M 9.5829399,4.16673 c 1.1508511,0 2.0833651,-0.932515 2.0833651,-2.083365 C 11.666305,0.932514 10.733791,0 9.5829399,0 8.4320899,0 7.4995763,0.932514 7.4995763,2.083365 c 0,1.15085 0.9325136,2.083365 2.0833636,2.083365 z M 7.4995763,15.000226 c -0.4608403,0 -0.8333459,0.372506 -0.8333459,0.833346 v 3.333384 c 0,0.46084 0.3725056,0.833346 0.8333459,0.833346 0.46084,0 0.8333456,-0.372506 0.8333456,-0.833346 v -3.333384 c 0,-0.46084 -0.3725056,-0.833346 -0.8333456,-0.833346 z M 3.54285,12.438521 c -0.4366733,-0.153336 -0.9108471,0.0725 -1.0641828,0.505841 l -2.11086523,5.943423 c -0.154169,0.434173 0.072501,0.910847 0.505841,1.064183 0.092501,0.0325 0.18666953,0.04833 0.27917093,0.04833 0.3425052,0 0.6641767,-0.213337 0.7850118,-0.554175 L 4.0478576,13.5027 c 0.154169,-0.434173 -0.072501,-0.910847 -0.505841,-1.064183 z"
     id="path477"
     style="fill:#05172d;fill-opacity:1;stroke-width:0.833346" /></svg>
