<?xml version="1.0" encoding="UTF-8" standalone="no"?>
<svg
   id="Layer_1"
   data-name="Layer 1"
   viewBox="0 0 24 24"
   version="1.1"
   sodipodi:docname="Medical.svg"
   inkscape:version="1.2.2 (732a01da63, 2022-12-09)"
   xml:space="preserve"
   xmlns:inkscape="http://www.inkscape.org/namespaces/inkscape"
   xmlns:sodipodi="http://sodipodi.sourceforge.net/DTD/sodipodi-0.dtd"
   xmlns="http://www.w3.org/2000/svg"
   xmlns:svg="http://www.w3.org/2000/svg"><defs
     id="defs7" /><sodipodi:namedview
     id="namedview5"
     pagecolor="#ffffff"
     bordercolor="#000000"
     borderopacity="0.25"
     inkscape:showpageshadow="2"
     inkscape:pageopacity="0.0"
     inkscape:pagecheckerboard="0"
     inkscape:deskcolor="#d1d1d1"
     showgrid="false"
     inkscape:zoom="6.9532168"
     inkscape:cx="35.810763"
     inkscape:cy="-0.5752733"
     inkscape:window-width="2560"
     inkscape:window-height="1494"
     inkscape:window-x="-11"
     inkscape:window-y="-11"
     inkscape:window-maximized="1"
     inkscape:current-layer="Layer_1" /><rect
     style="fill:#05172d;stroke-width:1.14553;fill-opacity:1"
     id="rect422"
     width="24"
     height="24"
     x="0"
     y="0"
     ry="4.2711864" /><path
     d="m 22.000479,9.5005996 a 2.5001223,2.5001223 0 1 0 -3.3335,2.3467804 v 3.48684 a 5.000245,5.000245 0 0 1 -10.0004897,0 v -0.0667 A 5.8386189,5.8386189 0 0 0 13.666739,9.5005696 v -3.3335 a 4.1718709,4.1718709 0 0 0 -4.1668697,-4.16687 0.833375,0.833375 0 0 0 0,1.66675 2.5001223,2.5001223 0 0 1 2.5001197,2.50012 v 3.3335 a 4.1668707,4.1668707 0 0 1 -8.3337397,0 v -3.3335 a 2.5001223,2.5001223 0 0 1 2.50012,-2.50012 0.833375,0.833375 0 0 0 0,-1.66675 4.1718709,4.1718709 0 0 0 -4.16687,4.16687 v 3.3335 a 5.8386189,5.8386189 0 0 0 5.00024,5.7669504 v 0.0667 a 6.666995,6.666995 0 0 0 13.3339897,0 v -3.48684 a 2.5001223,2.5001223 0 0 0 1.66675,-2.3467804 z m -2.50012,0.8333704 a 0.83337409,0.83337409 0 1 1 0.83337,-0.8333704 0.83337409,0.83337409 0 0 1 -0.83337,0.8333704 z"
     id="path314"
     style="fill:#ffffff;stroke-width:0.833373" /></svg>
