<?xml version="1.0" encoding="UTF-8" standalone="no"?>
<!-- Created with Inkscape (http://www.inkscape.org/) -->

<svg
   width="53.090702mm"
   height="53.058842mm"
   viewBox="0 0 53.090702 53.058842"
   version="1.1"
   id="svg5"
   xml:space="preserve"
   inkscape:version="1.2.2 (732a01da63, 2022-12-09)"
   sodipodi:docname="Realestate.svg"
   xmlns:inkscape="http://www.inkscape.org/namespaces/inkscape"
   xmlns:sodipodi="http://sodipodi.sourceforge.net/DTD/sodipodi-0.dtd"
   xmlns="http://www.w3.org/2000/svg"
   xmlns:svg="http://www.w3.org/2000/svg"><sodipodi:namedview
     id="namedview7"
     pagecolor="#ffffff"
     bordercolor="#000000"
     borderopacity="0.25"
     inkscape:showpageshadow="2"
     inkscape:pageopacity="0.0"
     inkscape:pagecheckerboard="0"
     inkscape:deskcolor="#d1d1d1"
     inkscape:document-units="mm"
     showgrid="false"
     inkscape:zoom="0.5946522"
     inkscape:cx="-734.04252"
     inkscape:cy="-369.12333"
     inkscape:window-width="2560"
     inkscape:window-height="1494"
     inkscape:window-x="-11"
     inkscape:window-y="-11"
     inkscape:window-maximized="1"
     inkscape:current-layer="layer1" /><defs
     id="defs2" /><g
     inkscape:label="Layer 1"
     inkscape:groupmode="layer"
     id="layer1"
     transform="translate(-128.13139,-207.23822)"><path
       d="m 179.27763,227.25258 -16.77886,-16.78109 a 11.078246,11.078246 0 0 0 -15.64403,0 l -16.77885,16.78109 a 6.5876634,6.5876634 0 0 0 -1.94447,4.69184 v 21.7163 a 6.6363299,6.6363299 0 0 0 6.63632,6.63634 h 39.81801 a 6.6363299,6.6363299 0 0 0 6.63632,-6.63634 v -21.7163 a 6.5876634,6.5876634 0 0 0 -1.94444,-4.69184 z m -17.96456,28.62023 h -13.27264 v -8.70243 a 6.6363299,6.6363299 0 0 1 13.27264,0 z m 15.48477,-2.21209 a 2.2121099,2.2121099 0 0 1 -2.21209,2.21209 h -8.84846 v -8.70243 a 11.06055,11.06055 0 0 0 -22.12109,0 v 8.70243 h -8.84846 a 2.2121099,2.2121099 0 0 1 -2.21209,-2.21209 v -21.7163 a 2.2298067,2.2298067 0 0 1 0.64814,-1.56396 l 16.77885,-16.77441 a 6.6540268,6.6540268 0 0 1 9.3882,0 l 16.77887,16.78108 a 2.2298067,2.2298067 0 0 1 0.64813,1.55729 z"
       id="path301"
       style="fill:#05172d;fill-opacity:1;stroke-width:2.21211" /></g></svg>
