<?xml version="1.0" encoding="UTF-8" standalone="no"?>
<svg
   id="Layer_1"
   data-name="Layer 1"
   viewBox="0 0 24 24"
   version="1.1"
   sodipodi:docname="hospitality.svg"
   inkscape:version="1.2.2 (732a01da63, 2022-12-09)"
   xml:space="preserve"
   xmlns:inkscape="http://www.inkscape.org/namespaces/inkscape"
   xmlns:sodipodi="http://sodipodi.sourceforge.net/DTD/sodipodi-0.dtd"
   xmlns="http://www.w3.org/2000/svg"
   xmlns:svg="http://www.w3.org/2000/svg"><defs
     id="defs7" /><sodipodi:namedview
     id="namedview5"
     pagecolor="#ffffff"
     bordercolor="#000000"
     borderopacity="0.25"
     inkscape:showpageshadow="2"
     inkscape:pageopacity="0.0"
     inkscape:pagecheckerboard="0"
     inkscape:deskcolor="#d1d1d1"
     showgrid="false"
     inkscape:zoom="9.8333335"
     inkscape:cx="20.237288"
     inkscape:cy="5.4915253"
     inkscape:window-width="2560"
     inkscape:window-height="1494"
     inkscape:window-x="-11"
     inkscape:window-y="-11"
     inkscape:window-maximized="1"
     inkscape:current-layer="Layer_1" /><rect
     style="fill:#05172d;stroke-width:1.14553;fill-opacity:1"
     id="rect422"
     width="24"
     height="24"
     x="0"
     y="0"
     ry="4.2711864" /><path
     d="m 21.781301,20.597137 a 0.83454394,0.83454394 0 0 1 -1.215943,1.143383 l -4.572715,-4.869611 c -0.864006,0.02755 -4.842927,0.145948 -3.596126,-1.734676 a 0.82147095,0.82147095 0 0 1 0.818138,-0.211835 6.7177143,6.7177143 0 0 0 2.883906,0.241855 1.0499816,1.0499816 0 0 1 0.909037,0.333591 z m -7.279814,-6.933714 a 4.1615634,4.1615634 0 0 0 2.948956,-1.21928 L 21.762954,8.1307951 A 0.83444712,0.83444712 0 1 0 20.583705,6.9498725 L 16.271193,11.26322 a 2.501942,2.501942 0 0 1 -2.840538,0.480375 L 19.261016,5.9132343 A 0.83398066,0.83398066 0 1 0 18.081766,4.7339846 L 12.249741,10.564346 A 2.501942,2.501942 0 0 1 12.730116,7.7238077 L 17.045128,3.4112961 A 0.83398066,0.83398066 0 0 0 15.865878,2.2320464 L 11.55253,6.544558 a 4.1782431,4.1782431 0 0 0 -0.529579,5.248241 l -8.7868182,8.786819 a 0.83398066,0.83398066 0 0 0 1.1792497,1.179249 l 8.7868185,-8.786818 a 4.1699034,4.1699034 0 0 0 2.299286,0.691374 z m -7.9628434,-0.86317 c 0.6913649,0.651335 1.3293619,-0.213508 1.7938903,-0.676363 a 1.6679613,1.6679613 0 0 0 0.449509,-1.501167 C 8.2674832,9.1866076 9.525121,7.5103087 8.4843188,6.3552427 L 4.7681008,2.4655652 A 1.63627,1.63627 0 0 0 1.9917767,3.6156217 c 0.1976523,3.8479832 1.6137484,5.811178 4.5468669,9.1846313 z"
     id="path327"
     style="fill:#ffffff;stroke-width:0.833979" /></svg>
