<?xml version="1.0" encoding="UTF-8" standalone="no"?>
<svg
   id="Layer_1"
   data-name="Layer 1"
   viewBox="0 0 24 24"
   version="1.1"
   sodipodi:docname="realestate.svg"
   inkscape:version="1.2.2 (732a01da63, 2022-12-09)"
   xml:space="preserve"
   xmlns:inkscape="http://www.inkscape.org/namespaces/inkscape"
   xmlns:sodipodi="http://sodipodi.sourceforge.net/DTD/sodipodi-0.dtd"
   xmlns="http://www.w3.org/2000/svg"
   xmlns:svg="http://www.w3.org/2000/svg"><defs
     id="defs7" /><sodipodi:namedview
     id="namedview5"
     pagecolor="#ffffff"
     bordercolor="#000000"
     borderopacity="0.25"
     inkscape:showpageshadow="2"
     inkscape:pageopacity="0.0"
     inkscape:pagecheckerboard="0"
     inkscape:deskcolor="#d1d1d1"
     showgrid="false"
     inkscape:zoom="4.9166668"
     inkscape:cx="40.067796"
     inkscape:cy="-17.898305"
     inkscape:window-width="2560"
     inkscape:window-height="1494"
     inkscape:window-x="-11"
     inkscape:window-y="-11"
     inkscape:window-maximized="1"
     inkscape:current-layer="Layer_1" /><rect
     style="fill:#05172d;stroke-width:1.14553;fill-opacity:1"
     id="rect422"
     width="24"
     height="24"
     x="0"
     y="0"
     ry="4.2711864" /><path
     d="m 21.26796,9.5455602 -6.32115,-6.32198 a 4.1735377,4.1735377 0 0 0 -5.89362,0 l -6.32114,6.32198 A 2.4817883,2.4817883 0 0 0 1.99951,11.31314 v 8.18124 a 2.5001225,2.5001225 0 0 0 2.50012,2.50012 h 15.00074 a 2.5001225,2.5001225 0 0 0 2.50012,-2.50012 V 11.31314 A 2.4817883,2.4817883 0 0 0 21.26796,9.5455602 Z M 14.50012,20.32775 H 9.49988 v -3.27849 a 2.5001225,2.5001225 0 0 1 5.00024,0 z m 5.83362,-0.83337 a 0.83337415,0.83337415 0 0 1 -0.83337,0.83337 h -3.3335 v -3.27849 a 4.166871,4.166871 0 0 0 -8.33374,0 v 3.27849 H 4.49963 A 0.83337415,0.83337415 0 0 1 3.66626,19.49438 v -8.18124 a 0.84004115,0.84004115 0 0 1 0.24418,-0.58919 l 6.32114,-6.3194798 a 2.5067895,2.5067895 0 0 1 3.53684,0 l 6.32115,6.3219798 a 0.84004115,0.84004115 0 0 1 0.24417,0.58669 z"
     id="path301"
     style="fill:#ffffff;stroke-width:0.833373" /></svg>
