<?xml version="1.0" encoding="UTF-8" standalone="no"?>
<svg
   id="Layer_1"
   data-name="Layer 1"
   viewBox="0 0 24 24"
   version="1.1"
   sodipodi:docname="school.svg"
   inkscape:version="1.2.2 (732a01da63, 2022-12-09)"
   xml:space="preserve"
   xmlns:inkscape="http://www.inkscape.org/namespaces/inkscape"
   xmlns:sodipodi="http://sodipodi.sourceforge.net/DTD/sodipodi-0.dtd"
   xmlns="http://www.w3.org/2000/svg"
   xmlns:svg="http://www.w3.org/2000/svg"><defs
     id="defs7" /><sodipodi:namedview
     id="namedview5"
     pagecolor="#ffffff"
     bordercolor="#000000"
     borderopacity="0.25"
     inkscape:showpageshadow="2"
     inkscape:pageopacity="0.0"
     inkscape:pagecheckerboard="0"
     inkscape:deskcolor="#d1d1d1"
     showgrid="false"
     inkscape:zoom="6.9532168"
     inkscape:cx="43.864589"
     inkscape:cy="4.3145498"
     inkscape:window-width="2560"
     inkscape:window-height="1494"
     inkscape:window-x="-11"
     inkscape:window-y="-11"
     inkscape:window-maximized="1"
     inkscape:current-layer="Layer_1" /><rect
     style="fill:#05172d;stroke-width:1.14553;fill-opacity:1"
     id="rect422"
     width="24"
     height="24"
     x="0"
     y="0"
     ry="4.2711864" /><path
     d="M 20.335857,5.766138 C 20.33669,5.044978 19.898158,4.423863 19.218684,4.183754 L 13.828744,2.2820603 C 12.673221,1.8727083 11.398477,1.8718746 10.24212,2.2762243 L 4.7863165,4.185422 C 4.1043411,4.424697 3.6641418,5.044978 3.6641418,5.767805 c 0,0.721993 0.441033,1.342274 1.1230084,1.580716 l 2.2059987,0.769515 v 1.401468 c 0,2.758749 2.2435158,5.002264 5.0022651,5.002264 2.758749,0 5.002265,-2.243515 5.002265,-5.002264 V 8.117202 L 18.6651,7.535272 v 3.650819 c 0,0.461042 0.373503,0.833711 0.833711,0.833711 0.460208,0 0.833711,-0.372669 0.833711,-0.833711 0,0 0.0033,-5.413284 0.0033,-5.420787 z m -5.0056,3.753366 c 0,1.839166 -1.495677,3.334843 -3.334843,3.334843 -1.839166,0 -3.3348434,-1.495677 -3.3348434,-3.334843 V 8.699132 L 10.21294,9.241044 c 0.574427,0.200091 1.178033,0.300136 1.78164,0.300136 0.603607,0 1.207213,-0.100045 1.782474,-0.300136 l 1.553203,-0.541912 z m -2.102619,-1.85334 c -0.79536,0.276792 -1.670756,0.276792 -2.466116,0 L 5.3365656,5.759468 10.792369,3.851104 c 0.80203,-0.2809607 1.683262,-0.2784596 2.481123,0.0033 l 5.389107,1.915867 -5.435794,1.895858 z m 5.708418,13.356881 c 0.09254,0.451038 -0.196756,0.892071 -0.647793,0.985446 -0.05669,0.01167 -0.113385,0.01751 -0.169243,0.01751 -0.386842,0 -0.7345,-0.270956 -0.816203,-0.665301 -0.296801,-1.438987 -1.188872,-2.714564 -2.447775,-3.498253 l -2.219338,2.629524 c -0.31681,0.379339 -0.96377,0.379339 -1.28058,0 L 9.1616307,17.86078 c -1.2847483,0.785356 -2.1768189,2.060933 -2.4736199,3.499918 -0.092542,0.451037 -0.5344086,0.737834 -0.9854461,0.647793 -0.4510376,-0.09337 -0.7411689,-0.534408 -0.6477933,-0.985446 0.3893429,-1.88502 1.5557043,-3.552442 3.1989483,-4.575405 0.7136564,-0.445201 1.6540822,-0.295967 2.1884913,0.344323 l 1.553203,1.863343 1.552369,-1.863343 c 0.533575,-0.641124 1.474835,-0.790358 2.187658,-0.34599 1.645745,1.02463 2.811272,2.692886 3.200615,4.577072 z"
     id="path340"
     style="fill:#ffffff;stroke-width:0.833711" /></svg>
