<?xml version="1.0" encoding="UTF-8" standalone="no"?>
<svg
   id="Layer_1"
   data-name="Layer 1"
   viewBox="0 0 24 24"
   version="1.1"
   sodipodi:docname="sport.svg"
   inkscape:version="1.2.2 (732a01da63, 2022-12-09)"
   xml:space="preserve"
   xmlns:inkscape="http://www.inkscape.org/namespaces/inkscape"
   xmlns:sodipodi="http://sodipodi.sourceforge.net/DTD/sodipodi-0.dtd"
   xmlns="http://www.w3.org/2000/svg"
   xmlns:svg="http://www.w3.org/2000/svg"><defs
     id="defs7" /><sodipodi:namedview
     id="namedview5"
     pagecolor="#ffffff"
     bordercolor="#000000"
     borderopacity="0.25"
     inkscape:showpageshadow="2"
     inkscape:pageopacity="0.0"
     inkscape:pagecheckerboard="0"
     inkscape:deskcolor="#d1d1d1"
     showgrid="false"
     inkscape:zoom="19.666667"
     inkscape:cx="20.237288"
     inkscape:cy="22.423728"
     inkscape:window-width="2560"
     inkscape:window-height="1494"
     inkscape:window-x="-11"
     inkscape:window-y="-11"
     inkscape:window-maximized="1"
     inkscape:current-layer="Layer_1" /><rect
     style="fill:#05172d;stroke-width:1.14553;fill-opacity:1"
     id="rect422"
     width="24"
     height="24"
     x="0"
     y="0"
     ry="4.2711864" /><path
     d="m 19.806389,8.716445 c -0.358357,-0.04 -0.740883,-0.06 -1.135076,-0.06 -2.336821,0 -4.261949,2.241815 -4.656976,2.735181 -0.470864,-0.156677 -1.0059,-0.25335 -1.611773,-0.235015 -1.15091,0.02584 -2.15431,0.407527 -2.9676969,0.881725 0.137509,-1.041736 0.11334,-2.016801 0.08834,-2.828521 -0.0175,-0.535036 -0.0325,-1.048403 0.0083,-1.427595 L 11.439967,7.174679 C 11.785823,7.064672 12.020839,6.742984 12.020839,6.38046 V 6.146278 L 12.678382,5.907095 C 13.073409,5.750418 13.392596,5.434564 13.554274,5.041204 13.714285,4.650345 13.710951,4.224483 13.542604,3.840291 13.050072,2.71605 11.791655,1.989335 10.337392,1.989335 c -1.5209349,0 -2.6860119,0.989232 -2.769351,1.065071 -4.9869977,3.835255 -5.5678697,8.964762 -5.5720366,12.489163 -0.00167,1.127575 0.4625307,2.217647 1.2734179,2.993532 1.359257,1.297586 4.3019523,3.473564 8.7339137,3.473564 3.905259,0 6.638774,-1.019234 8.244714,-1.874291 1.083405,-0.575872 1.75595,-1.702613 1.75595,-2.938529 v -5.996231 c 0,-1.275085 -0.945063,-2.343489 -2.19848,-2.483499 z m 0.531702,8.480563 c 0,0.618374 -0.334189,1.180912 -0.872558,1.467597 -1.438429,0.765885 -3.900259,1.679279 -7.461329,1.679279 -3.8519229,0 -6.4045919,-1.887626 -7.5838369,-3.011867 -0.4900325,-0.468365 -0.7592171,-1.10174 -0.7575503,-1.785952 0.00417,-3.441062 0.5667043,-7.82052 4.9611623,-11.202411 0.0075,-0.0067 0.805887,-0.686712 1.7134479,-0.686712 0.821721,0 1.385092,0.355857 1.619274,0.740882 l -1.05507,0.383359 c -0.330022,0.120008 -0.54837,0.432529 -0.54837,0.782552 V 5.772082 L 8.5673091,6.340453 c -0.249183,0.07917 -0.445863,0.270018 -0.533369,0.515868 -0.232515,0.65671 -0.207514,1.467597 -0.178345,2.405993 0.04334,1.415927 0.10334,3.186878 -0.7550501,4.856989 -0.057504,0.113341 -0.097507,0.236683 -0.097507,0.372525 0,0.460031 0.3733581,0.833389 0.8333881,0.833389 0.266684,0 0.492533,-0.132509 0.645043,-0.327522 0.01667,-0.02083 1.6717779,-2.122641 3.9569289,-2.172644 1.625108,0 2.581005,1.236749 2.625175,1.301753 0.256684,0.378358 0.773385,0.479198 1.154243,0.223348 0.381692,-0.256684 0.483366,-0.774218 0.226682,-1.156743 -0.02667,-0.04 -0.34419,-0.508368 -0.940896,-0.985066 0.620876,-0.706713 1.916794,-1.883458 3.166044,-1.883458 0.332523,0 0.652544,0.0175 0.950063,0.05084 0.40836,0.04584 0.716714,0.40086 0.716714,0.826722 v 5.996232 z"
     id="path180"
     style="fill:#ffffff;stroke-width:0.833389" /></svg>
