<?xml version="1.0" encoding="UTF-8" standalone="no"?>
<!-- Created with Inkscape (http://www.inkscape.org/) -->

<svg
   width="44.253441mm"
   height="53.225967mm"
   viewBox="0 0 44.253441 53.225967"
   version="1.1"
   id="svg5"
   xml:space="preserve"
   inkscape:version="1.2.2 (732a01da63, 2022-12-09)"
   sodipodi:docname="Education.svg"
   xmlns:inkscape="http://www.inkscape.org/namespaces/inkscape"
   xmlns:sodipodi="http://sodipodi.sourceforge.net/DTD/sodipodi-0.dtd"
   xmlns="http://www.w3.org/2000/svg"
   xmlns:svg="http://www.w3.org/2000/svg"><sodipodi:namedview
     id="namedview7"
     pagecolor="#ffffff"
     bordercolor="#000000"
     borderopacity="0.25"
     inkscape:showpageshadow="2"
     inkscape:pageopacity="0.0"
     inkscape:pagecheckerboard="0"
     inkscape:deskcolor="#d1d1d1"
     inkscape:document-units="mm"
     showgrid="false"
     inkscape:zoom="0.5946522"
     inkscape:cx="-374.1683"
     inkscape:cy="91.650212"
     inkscape:window-width="2560"
     inkscape:window-height="1494"
     inkscape:window-x="-11"
     inkscape:window-y="-11"
     inkscape:window-maximized="1"
     inkscape:current-layer="layer1" /><defs
     id="defs2" /><g
     inkscape:label="Layer 1"
     inkscape:groupmode="layer"
     id="layer1"
     transform="translate(-32.554041,-118.05733)"><path
       d="m 76.80748,128.12336 c 0.0021,-1.91426 -1.161842,-3.56294 -2.965426,-4.2003 L 59.534981,118.8752 c -3.067228,-1.0866 -6.450909,-1.08881 -9.520346,-0.0166 l -14.481911,5.06776 c -1.810214,0.63515 -2.978683,2.28162 -2.978683,4.20029 0,1.91644 1.170679,3.56295 2.980892,4.19586 l 5.855604,2.04262 v 3.72006 c 0,7.32281 5.955198,13.27801 13.27805,13.27801 7.32281,0 13.278008,-5.9552 13.278008,-13.27801 v -3.72231 l 4.426002,-1.54467 v 9.69073 c 0,1.22378 0.991422,2.21303 2.213002,2.21303 1.221579,0 2.213001,-0.98925 2.213001,-2.21303 0,0 0.0084,-14.36903 0.0084,-14.38895 z m -13.286887,9.96295 c 0,4.88186 -3.970146,8.85201 -8.852006,8.85201 -4.8819,0 -8.852046,-3.97015 -8.852046,-8.85201 v -2.17762 l 4.120638,1.43845 c 1.524734,0.53111 3.126966,0.79669 4.729199,0.79669 1.602191,0 3.204422,-0.26555 4.731366,-0.79669 l 4.122849,-1.43845 z m -5.581216,-4.91954 c -2.1112,0.73473 -4.434841,0.73473 -6.54604,0 L 36.9933,128.10564 51.475212,123.04006 c 2.128917,-0.74576 4.468066,-0.73913 6.585893,0.008 l 14.304864,5.0855 -14.428801,5.03235 z m 15.152461,35.45454 c 0.245542,1.19723 -0.522266,2.36791 -1.7195,2.61579 -0.150484,0.0291 -0.300987,0.0462 -0.44927,0.0462 -1.026814,0 -1.949659,-0.7192 -2.166519,-1.76593 -0.787817,-3.81966 -3.155732,-7.20556 -6.497391,-9.28578 l -5.890998,6.97981 c -0.840928,1.00693 -2.558219,1.00693 -3.399188,0 l -5.822379,-6.98427 c -3.410278,2.08468 -5.778191,5.47058 -6.566008,9.29019 -0.245542,1.19723 -1.418514,1.95853 -2.615748,1.71955 -1.197235,-0.24805 -1.967378,-1.41857 -1.7195,-2.61579 1.033442,-5.0036 4.129434,-9.42959 8.49128,-12.14498 1.894338,-1.18174 4.390608,-0.7856 5.809121,0.91397 l 4.122849,4.94606 4.120598,-4.94606 c 1.416304,-1.70179 3.914824,-2.09791 5.806912,-0.91838 4.368475,2.7198 7.462256,7.14801 8.495741,12.14939 z"
       id="path340"
       style="fill:#05172d;fill-opacity:1;stroke-width:2.21301" /></g></svg>
