<?xml version="1.0" encoding="UTF-8" standalone="no"?>
<svg
   id="Layer_1"
   data-name="Layer 1"
   viewBox="0 0 24 24"
   width="512"
   height="512"
   version="1.1"
   sodipodi:docname="chair-office (1).svg"
   inkscape:version="1.2.2 (732a01da63, 2022-12-09)"
   xmlns:inkscape="http://www.inkscape.org/namespaces/inkscape"
   xmlns:sodipodi="http://sodipodi.sourceforge.net/DTD/sodipodi-0.dtd"
   xmlns="http://www.w3.org/2000/svg"
   xmlns:svg="http://www.w3.org/2000/svg">
  <defs
     id="defs17498" />
  <sodipodi:namedview
     id="namedview17496"
     pagecolor="#ffffff"
     bordercolor="#000000"
     borderopacity="0.25"
     inkscape:showpageshadow="2"
     inkscape:pageopacity="0.0"
     inkscape:pagecheckerboard="0"
     inkscape:deskcolor="#d1d1d1"
     showgrid="false"
     inkscape:zoom="0.4609375"
     inkscape:cx="6.5084746"
     inkscape:cy="256"
     inkscape:window-width="2560"
     inkscape:window-height="1494"
     inkscape:window-x="-11"
     inkscape:window-y="-11"
     inkscape:window-maximized="1"
     inkscape:current-layer="Layer_1" />
  <path
     d="M23,11c0-2.206-1.794-4-4-4v-2c0-2.757-2.243-5-5-5h-4c-2.757,0-5,2.243-5,5v2c-2.206,0-4,1.794-4,4v5.5c0,1.379,1.121,2.5,2.5,2.5h7.5v3H7c-.552,0-1,.447-1,1s.448,1,1,1h10c.552,0,1-.447,1-1s-.448-1-1-1h-4v-3h7.5c1.379,0,2.5-1.121,2.5-2.5v-5.5ZM3.5,14c-.171,0-.338,.018-.5,.051v-3.051c0-1.103,.897-2,2-2v3h14v-3c1.103,0,2,.897,2,2v3.051c-.162-.033-.329-.051-.5-.051H3.5Z"
     id="path17493"
     style="fill:#05172d;fill-opacity:1" />
</svg>
