<?xml version="1.0" encoding="UTF-8" standalone="no"?>
<svg
   id="Layer_1"
   data-name="Layer 1"
   viewBox="0 0 24 24"
   version="1.1"
   sodipodi:docname="clothing-rack.svg"
   inkscape:version="1.2.2 (732a01da63, 2022-12-09)"
   xmlns:inkscape="http://www.inkscape.org/namespaces/inkscape"
   xmlns:sodipodi="http://sodipodi.sourceforge.net/DTD/sodipodi-0.dtd"
   xmlns="http://www.w3.org/2000/svg"
   xmlns:svg="http://www.w3.org/2000/svg">
  <defs
     id="defs17783" />
  <sodipodi:namedview
     id="namedview17781"
     pagecolor="#ffffff"
     bordercolor="#000000"
     borderopacity="0.25"
     inkscape:showpageshadow="2"
     inkscape:pageopacity="0.0"
     inkscape:pagecheckerboard="0"
     inkscape:deskcolor="#d1d1d1"
     showgrid="false"
     inkscape:zoom="1.7383042"
     inkscape:cx="-48.898232"
     inkscape:cy="-104.69974"
     inkscape:window-width="2560"
     inkscape:window-height="1494"
     inkscape:window-x="-11"
     inkscape:window-y="-11"
     inkscape:window-maximized="1"
     inkscape:current-layer="Layer_1" />
  <path
     d="M2.001,4l.003,19c0,.552-.448,1-1,1h0C.452,24,.004,23.552,.004,23L0,1C0,.448,.448,0,1,0s1,.448,1,1v1H6.004c.552,0,1,.448,1,1s-.448,1-1,1H2.001Zm8.003,1c.552,0,1-.448,1-1v-1c0-.552-.448-1-1-1s-1,.448-1,1v1c0,.552,.448,1,1,1Zm5,0c.552,0,1-.448,1-1v-1c0-.552-.448-1-1-1s-1,.448-1,1v1c0,.552,.448,1,1,1Zm-5,12v-3c-1.105,0-2-.895-2-2v-1c0-1.581,.561-2.961,1.518-4h-1.113c-2.635,0-4.405,1.607-4.405,4,0,0-.008,1,.996,1h1.004v5c0,1.105,.895,2,2,2h2.556c-.345-.591-.556-1.268-.556-2Zm6-9.968h-2c-2.404,.161-4,1.704-4,3.968,0,0-.008,1,.996,1h1.004v5c0,1.105,.895,2,2,2h2c1.105,0,2-.895,2-2v-5s-.004,0,.996,0,1.004-1,1.004-1c0-2.265-1.596-3.808-4-3.968ZM24.004,1c0-.552-.448-1-1-1h0c-.552,0-1,.448-1,1v1s-3,0-3,0c-.552,0-1,.448-1,1s.448,1,1,1h3.001l.003,19c0,.552,.448,1,1,1s1-.448,1-1l-.004-22Z"
     id="path17778"
     style="fill:#05172d;fill-opacity:1" />
</svg>
