<?xml version="1.0" encoding="UTF-8" standalone="no"?>
<svg
   id="Layer_1"
   data-name="Layer 1"
   viewBox="0 0 24 24"
   version="1.1"
   sodipodi:docname="leader-speech (1).svg"
   inkscape:version="1.2.2 (732a01da63, 2022-12-09)"
   xmlns:inkscape="http://www.inkscape.org/namespaces/inkscape"
   xmlns:sodipodi="http://sodipodi.sourceforge.net/DTD/sodipodi-0.dtd"
   xmlns="http://www.w3.org/2000/svg"
   xmlns:svg="http://www.w3.org/2000/svg">
  <defs
     id="defs19946" />
  <sodipodi:namedview
     id="namedview19944"
     pagecolor="#ffffff"
     bordercolor="#000000"
     borderopacity="0.25"
     inkscape:showpageshadow="2"
     inkscape:pageopacity="0.0"
     inkscape:pagecheckerboard="0"
     inkscape:deskcolor="#d1d1d1"
     showgrid="false"
     inkscape:zoom="2.4583333"
     inkscape:cx="-16.271186"
     inkscape:cy="-87.457627"
     inkscape:window-width="2560"
     inkscape:window-height="1494"
     inkscape:window-x="-11"
     inkscape:window-y="-11"
     inkscape:window-maximized="1"
     inkscape:current-layer="Layer_1" />
  <path
     d="m12,2.5c0-1.381,1.119-2.5,2.5-2.5s2.5,1.119,2.5,2.5-1.119,2.5-2.5,2.5-2.5-1.119-2.5-2.5Zm-1,11.5h7v-6.018l5.342-6.335c.366-.433.299-1.083-.146-1.433h0c-.423-.332-1.032-.271-1.381.138l-4.8,5.648h-5.028L7.309.361c-.346-.417-.962-.482-1.388-.147h0c-.442.347-.511.991-.153,1.424l5.232,6.344v6.018Zm12,4h-1v5c0,.552-.448,1-1,1H3c-.552,0-1-.448-1-1v-5H1c-.552,0-1-.448-1-1h0c0-.552.448-1,1-1h1v-2.671c0-.796.316-1.559.879-2.121l.696-.696c-.136-.511-.146-1.073.505-1.789.413-.454.982-.768,1.594-.716.966.083,1.736.853,1.819,1.819.052.612-.262,1.181-.716,1.594-.716.651-1.277.641-1.789.505l-.988.988v3.086h19c.552,0,1,.448,1,1h0c0,.552-.448,1-1,1Z"
     id="path19941"
     style="fill:#05172d;fill-opacity:1" />
</svg>
