<?xml version="1.0" encoding="UTF-8" standalone="no"?>
<svg
   id="Layer_1"
   data-name="Layer 1"
   viewBox="0 0 24 24"
   version="1.1"
   sodipodi:docname="meditation.svg"
   inkscape:version="1.2.2 (732a01da63, 2022-12-09)"
   xmlns:inkscape="http://www.inkscape.org/namespaces/inkscape"
   xmlns:sodipodi="http://sodipodi.sourceforge.net/DTD/sodipodi-0.dtd"
   xmlns="http://www.w3.org/2000/svg"
   xmlns:svg="http://www.w3.org/2000/svg">
  <defs
     id="defs20305" />
  <sodipodi:namedview
     id="namedview20303"
     pagecolor="#ffffff"
     bordercolor="#000000"
     borderopacity="0.25"
     inkscape:showpageshadow="2"
     inkscape:pageopacity="0.0"
     inkscape:pagecheckerboard="0"
     inkscape:deskcolor="#d1d1d1"
     showgrid="false"
     inkscape:zoom="3.4766083"
     inkscape:cx="-2.5887299"
     inkscape:cy="-60.978971"
     inkscape:window-width="2560"
     inkscape:window-height="1494"
     inkscape:window-x="-11"
     inkscape:window-y="-11"
     inkscape:window-maximized="1"
     inkscape:current-layer="Layer_1" />
  <path
     d="M8.947,3c0-1.657,1.367-3,3.054-3s2.946,1.343,2.946,3-1.26,3-2.946,3-3.054-1.343-3.054-3Zm14.89,14.047c-.302,.462-.921,.592-1.384,.29l-4-2.615c-.123-.081-.227-.188-.305-.313l-1.425-2.321c-.202-.329-.447-.625-.723-.885v7.162l5.059,2.377c.83,.47,1.142,1.356,.812,2.187-.264,.666-.952,1.071-1.669,1.071H11c-.552,0-1-.448-1-1s.448-1,1-1h3.554c1.069,0,1.392-1.451,.425-1.905h0c-.133-.062-.278-.095-.425-.095h-3.554c-1.665,.028-3,1.335-3,3h0c0,1-1,1-1,1H3.809c-.72,0-1.415-.403-1.681-1.072-.329-.831-.01-1.72,.742-2.149l5.13-2.414v-7.012c-.255,.266-.481,.565-.665,.895l-1.461,2.623c-.079,.141-.191,.262-.326,.35l-4,2.615c-.169,.11-.359,.163-.546,.163-.326,0-.646-.159-.838-.453-.302-.462-.172-1.082,.29-1.384l3.794-2.48,1.341-2.407c1.126-2.022,3.259-3.276,5.574-3.276h1.83c2.217,0,4.276,1.151,5.436,3.041l1.308,2.129,3.812,2.493c.462,.302,.592,.922,.29,1.384Z"
     id="path20300"
     style="fill:#05172d;fill-opacity:1" />
</svg>
