<?xml version="1.0" encoding="UTF-8" standalone="no"?>
<svg
   id="Layer_1"
   data-name="Layer 1"
   viewBox="0 0 24 24"
   width="512"
   height="512"
   version="1.1"
   sodipodi:docname="water-bottle.svg"
   inkscape:version="1.2.2 (732a01da63, 2022-12-09)"
   xmlns:inkscape="http://www.inkscape.org/namespaces/inkscape"
   xmlns:sodipodi="http://sodipodi.sourceforge.net/DTD/sodipodi-0.dtd"
   xmlns="http://www.w3.org/2000/svg"
   xmlns:svg="http://www.w3.org/2000/svg">
  <defs
     id="defs21824" />
  <sodipodi:namedview
     id="namedview21822"
     pagecolor="#ffffff"
     bordercolor="#000000"
     borderopacity="0.25"
     inkscape:showpageshadow="2"
     inkscape:pageopacity="0.0"
     inkscape:pagecheckerboard="0"
     inkscape:deskcolor="#d1d1d1"
     showgrid="false"
     inkscape:zoom="0.4609375"
     inkscape:cx="6.5084746"
     inkscape:cy="256"
     inkscape:window-width="2560"
     inkscape:window-height="1494"
     inkscape:window-x="-11"
     inkscape:window-y="-11"
     inkscape:window-maximized="1"
     inkscape:current-layer="Layer_1" />
  <path
     d="M20,8.016C20.152,5.423,16.873,4.853,15,4V2a1,1,0,0,0,0-2H9A1,1,0,0,0,9,2V4L6.514,5A3.219,3.219,0,0,0,4.575,10H15a1,1,0,0,1,0,2H4.574a3.828,3.828,0,0,0,0,4H15a1,1,0,0,1,0,2H4.574A3.991,3.991,0,0,0,8,24h8a4.006,4.006,0,0,0,2.618-7,3.993,3.993,0,0,0,0-6A4.007,4.007,0,0,0,20,8.016Z"
     id="path21819"
     style="fill:#05172d;fill-opacity:1" />
</svg>
