<?xml version="1.0" encoding="UTF-8" standalone="no"?>
<!-- Created with Inkscape (http://www.inkscape.org/) -->

<svg
   width="53.13549mm"
   height="53.098118mm"
   viewBox="0 0 53.13549 53.098118"
   version="1.1"
   id="svg5"
   xml:space="preserve"
   inkscape:version="1.2.2 (732a01da63, 2022-12-09)"
   sodipodi:docname="Hospitality.svg"
   xmlns:inkscape="http://www.inkscape.org/namespaces/inkscape"
   xmlns:sodipodi="http://sodipodi.sourceforge.net/DTD/sodipodi-0.dtd"
   xmlns="http://www.w3.org/2000/svg"
   xmlns:svg="http://www.w3.org/2000/svg"><sodipodi:namedview
     id="namedview7"
     pagecolor="#ffffff"
     bordercolor="#000000"
     borderopacity="0.25"
     inkscape:showpageshadow="2"
     inkscape:pageopacity="0.0"
     inkscape:pagecheckerboard="0"
     inkscape:deskcolor="#d1d1d1"
     inkscape:document-units="mm"
     showgrid="false"
     inkscape:zoom="0.5946522"
     inkscape:cx="232.90925"
     inkscape:cy="646.59645"
     inkscape:window-width="2560"
     inkscape:window-height="1494"
     inkscape:window-x="-11"
     inkscape:window-y="-11"
     inkscape:window-maximized="1"
     inkscape:current-layer="layer1" /><defs
     id="defs2" /><g
     inkscape:label="Layer 1"
     inkscape:groupmode="layer"
     id="layer1"
     transform="translate(-28.113058,-26.267664)"><path
       d="M 80.642417,75.636768 A 2.215215,2.215215 0 0 1 77.414822,78.67177 L 65.27698,65.745859 c -2.293419,0.07296 -12.855092,0.38728 -9.545576,-4.60451 a 2.180514,2.180514 0 0 1 2.171689,-0.562287 17.831513,17.831513 0 0 0 7.655033,0.641953 2.7870731,2.7870731 0 0 1 2.412978,0.885492 z M 61.318843,57.2319 a 11.046461,11.046461 0 0 0 7.827725,-3.236438 L 80.593692,42.546093 A 2.214958,2.214958 0 1 0 77.463514,39.411457 L 66.016356,50.860825 A 6.6411595,6.6411595 0 0 1 58.47644,52.135933 L 73.952552,36.659806 A 2.2137198,2.2137198 0 1 0 70.82234,33.529588 L 55.341803,49.005715 a 6.6411595,6.6411595 0 0 1 1.275135,-7.539921 L 68.070692,30.018635 A 2.2137198,2.2137198 0 0 0 64.940513,26.888459 L 53.491151,38.335576 A 11.090736,11.090736 0 0 0 52.085437,52.266541 L 28.761679,75.590285 a 2.2137198,2.2137198 0 0 0 3.130179,3.130177 L 55.215599,55.396718 A 11.068599,11.068599 0 0 0 61.318843,57.2319 Z M 40.182287,54.940694 c 1.83514,1.728921 3.528629,-0.566706 4.761668,-1.795331 a 4.4274395,4.4274395 0 0 0 1.193197,-3.984694 c -1.365856,-3.812024 1.972415,-8.261581 -0.790272,-11.3276 L 35.48252,27.508274 a 4.3433179,4.3433179 0 0 0 -7.369462,3.05272 c 0.524655,10.214116 4.283517,15.425226 12.069229,24.3797 z"
       id="path327"
       style="fill:#05172d;fill-opacity:1;stroke-width:2.21372" /></g></svg>
