<?xml version="1.0" encoding="UTF-8" standalone="no"?>
<!-- Created with Inkscape (http://www.inkscape.org/) -->

<svg
   width="53.090687mm"
   height="53.090862mm"
   viewBox="0 0 53.090687 53.090862"
   version="1.1"
   id="svg5"
   xml:space="preserve"
   inkscape:version="1.2.2 (732a01da63, 2022-12-09)"
   sodipodi:docname="Medical.svg"
   xmlns:inkscape="http://www.inkscape.org/namespaces/inkscape"
   xmlns:sodipodi="http://sodipodi.sourceforge.net/DTD/sodipodi-0.dtd"
   xmlns="http://www.w3.org/2000/svg"
   xmlns:svg="http://www.w3.org/2000/svg"><sodipodi:namedview
     id="namedview7"
     pagecolor="#ffffff"
     bordercolor="#000000"
     borderopacity="0.25"
     inkscape:showpageshadow="2"
     inkscape:pageopacity="0.0"
     inkscape:pagecheckerboard="0"
     inkscape:deskcolor="#d1d1d1"
     inkscape:document-units="mm"
     showgrid="false"
     inkscape:zoom="0.5946522"
     inkscape:cx="-251.40746"
     inkscape:cy="537.28886"
     inkscape:window-width="2560"
     inkscape:window-height="1494"
     inkscape:window-x="-11"
     inkscape:window-y="-11"
     inkscape:window-maximized="1"
     inkscape:current-layer="layer1" /><defs
     id="defs2" /><g
     inkscape:label="Layer 1"
     inkscape:groupmode="layer"
     id="layer1"
     transform="translate(-128.1314,-29.01152)"><path
       d="m 181.22203,48.920735 a 6.6363291,6.6363291 0 1 0 -8.84844,6.229296 v 9.25546 a 13.272659,13.272659 0 0 1 -26.54531,0 V 64.228317 A 15.498041,15.498041 0 0 0 159.10095,48.920528 V 40.072066 A 11.073822,11.073822 0 0 0 148.0404,29.01152 a 2.2121122,2.2121122 0 0 0 0,4.42421 6.6363291,6.6363291 0 0 1 6.63632,6.636336 v 8.848462 a 11.060549,11.060549 0 0 1 -22.12109,0 v -8.848462 a 6.6363291,6.6363291 0 0 1 6.63632,-6.636336 2.2121122,2.2121122 0 0 0 0,-4.42421 11.073822,11.073822 0 0 0 -11.06055,11.060546 v 8.848462 a 15.498041,15.498041 0 0 0 13.27264,15.307789 v 0.177174 a 17.69689,17.69689 0 0 0 35.39378,0 v -9.25546 a 6.6363291,6.6363291 0 0 0 4.42421,-6.229296 z m -6.63632,2.212085 a 2.2121097,2.2121097 0 1 1 2.21211,-2.212085 2.2121097,2.2121097 0 0 1 -2.21211,2.212085 z"
       id="path314"
       style="fill:#05172d;fill-opacity:1;stroke-width:2.21211" /></g></svg>
