<?xml version="1.0" encoding="UTF-8" standalone="no"?>
<!-- Created with Inkscape (http://www.inkscape.org/) -->

<svg
   width="53.109268mm"
   height="53.14468mm"
   viewBox="0 0 53.109268 53.14468"
   version="1.1"
   id="svg5"
   xml:space="preserve"
   inkscape:version="1.2.2 (732a01da63, 2022-12-09)"
   sodipodi:docname="Sports &amp; Fitness.svg"
   xmlns:inkscape="http://www.inkscape.org/namespaces/inkscape"
   xmlns:sodipodi="http://sodipodi.sourceforge.net/DTD/sodipodi-0.dtd"
   xmlns="http://www.w3.org/2000/svg"
   xmlns:svg="http://www.w3.org/2000/svg"><sodipodi:namedview
     id="namedview7"
     pagecolor="#ffffff"
     bordercolor="#000000"
     borderopacity="0.25"
     inkscape:showpageshadow="2"
     inkscape:pageopacity="0.0"
     inkscape:pagecheckerboard="0"
     inkscape:deskcolor="#d1d1d1"
     inkscape:document-units="mm"
     showgrid="false"
     inkscape:zoom="0.5946522"
     inkscape:cx="-249.72581"
     inkscape:cy="-269.90567"
     inkscape:window-width="2560"
     inkscape:window-height="1494"
     inkscape:window-x="-11"
     inkscape:window-y="-11"
     inkscape:window-maximized="1"
     inkscape:current-layer="layer1" /><defs
     id="defs2" /><g
     inkscape:label="Layer 1"
     inkscape:groupmode="layer"
     id="layer1"
     transform="translate(-28.12613,-209.97479)"><path
       d="m 75.401881,227.83124 c -0.951235,-0.10627 -1.966626,-0.15923 -3.012949,-0.15923 -6.202878,0 -11.312946,5.95065 -12.361505,7.26028 -1.249861,-0.41605 -2.670062,-0.67251 -4.278293,-0.62387 -3.054976,0.0688 -5.718402,1.08177 -7.87746,2.34049 0.36502,-2.76519 0.300861,-5.35342 0.234494,-7.50802 -0.04644,-1.42023 -0.08625,-2.78292 0.02209,-3.78943 l 5.06582,-1.61265 c 0.918037,-0.29224 1.541868,-1.14589 1.541868,-2.10821 v -0.62161 l 1.745379,-0.63486 c 1.048563,-0.41605 1.895816,-1.2543 2.324972,-2.29842 0.424733,-1.03753 0.415878,-2.16793 -0.03084,-3.1877 -1.307377,-2.98419 -4.647719,-4.91322 -8.507917,-4.91322 -4.037176,0 -7.129758,2.62584 -7.35097,2.82715 -13.2375,10.1803 -14.779363,23.79607 -14.790427,33.15126 -0.0046,2.99301 1.227747,5.88653 3.380166,7.94603 3.608012,3.44431 11.419108,9.22024 23.183315,9.22024 10.366126,0 17.621982,-2.70547 21.884816,-4.97512 2.875756,-1.52861 4.660957,-4.51942 4.660957,-7.80005 v -15.9164 c 0,-3.38459 -2.508568,-6.22058 -5.835637,-6.59222 z m 1.411343,22.51084 c 0,1.6414 -0.887076,3.13458 -2.316138,3.89561 -3.81815,2.03295 -10.352848,4.45747 -19.805357,4.45747 -10.224554,0 -17.000364,-5.01055 -20.130554,-7.99474 -1.30074,-1.24322 -2.015267,-2.92444 -2.01084,-4.74061 0.01119,-9.13395 1.504257,-20.75882 13.168914,-29.73572 0.02,-0.0166 2.139152,-1.8228 4.548183,-1.8228 2.181176,0 3.676591,0.9446 4.298203,1.96662 l -2.800579,1.01756 c -0.876012,0.31849 -1.455595,1.14813 -1.455595,2.07722 v 0.55303 l -4.740633,1.50869 c -0.661433,0.2101 -1.183503,0.71674 -1.415775,1.36931 -0.617189,1.74319 -0.550827,3.89561 -0.4734,6.38647 0.115051,3.75845 0.274306,8.45927 -2.004207,12.89243 -0.152623,0.30098 -0.25884,0.62824 -0.25884,0.98881 0,1.22111 0.991042,2.21215 2.212146,2.21215 0.707886,0 1.307383,-0.35185 1.712204,-0.86936 0.04423,-0.0554 4.437572,-5.63436 10.50328,-5.76709 4.313691,0 6.851024,3.28283 6.968267,3.45538 0.681342,1.0043 2.052878,1.27197 3.063826,0.59284 1.013166,-0.68131 1.283049,-2.05508 0.601707,-3.07044 -0.07079,-0.10626 -0.913619,-1.34943 -2.497517,-2.61475 1.648054,-1.8759 5.087943,-4.99945 8.403951,-4.99945 0.882659,0 1.732132,0.0462 2.521866,0.13505 1.08397,0.12173 1.902427,1.06404 1.902427,2.19444 v 15.9164 z"
       id="path180"
       style="fill:#05172d;fill-opacity:1;stroke-width:2.21216" /></g></svg>
