<?xml version="1.0" encoding="UTF-8" standalone="no"?>
<svg
   id="Filled"
   viewBox="0 0 24 24"
   width="512"
   height="512"
   version="1.1"
   sodipodi:docname="interrogation.svg"
   inkscape:version="1.2.2 (732a01da63, 2022-12-09)"
   xmlns:inkscape="http://www.inkscape.org/namespaces/inkscape"
   xmlns:sodipodi="http://sodipodi.sourceforge.net/DTD/sodipodi-0.dtd"
   xmlns="http://www.w3.org/2000/svg"
   xmlns:svg="http://www.w3.org/2000/svg">
  <defs
     id="defs29045" />
  <sodipodi:namedview
     id="namedview29043"
     pagecolor="#ffffff"
     bordercolor="#000000"
     borderopacity="0.25"
     inkscape:showpageshadow="2"
     inkscape:pageopacity="0.0"
     inkscape:pagecheckerboard="0"
     inkscape:deskcolor="#d1d1d1"
     showgrid="false"
     inkscape:zoom="0.4609375"
     inkscape:cx="-3.2542373"
     inkscape:cy="256"
     inkscape:window-width="2560"
     inkscape:window-height="1494"
     inkscape:window-x="-11"
     inkscape:window-y="-11"
     inkscape:window-maximized="1"
     inkscape:current-layer="Filled" />
  <path
     d="M12,0A12,12,0,1,0,24,12,12.013,12.013,0,0,0,12,0Zm0,20a1,1,0,1,1,1-1A1,1,0,0,1,12,20Zm1.93-7.494A1.982,1.982,0,0,0,13,14.257V15a1,1,0,0,1-2,0v-.743a3.954,3.954,0,0,1,1.964-3.5,2,2,0,0,0,1-2.125,2.024,2.024,0,0,0-1.6-1.595A2,2,0,0,0,10,9,1,1,0,0,1,8,9a4,4,0,1,1,5.93,3.505Z"
     id="path29040"
     style="fill:#05172d;fill-opacity:1" />
</svg>
